<svg xmlns="http://www.w3.org/2000/svg" width="1100" height="620" viewBox="0 0 1100 620" role="img" aria-labelledby="title desc">
  <title id="title">webcool 安全与系统管理</title>
  <desc id="desc">展示锁、回收站、上传转码、存储路径迁移和国际化等能力。</desc>
  <rect width="1100" height="620" rx="24" fill="#f7fbff"/>
  <text x="54" y="78" font-family="Arial, sans-serif" font-size="34" font-weight="700" fill="#213b5a">安全、上传与系统管理</text>
  <rect x="54" y="124" width="310" height="388" rx="18" fill="#ffffff" stroke="#cfe1f3"/>
  <text x="84" y="170" font-family="Arial, sans-serif" font-size="24" font-weight="700" fill="#254567">加锁保护</text>
  <circle cx="208" cy="280" r="70" fill="#eaf4ff" stroke="#b8d6ef"/>
  <path d="M176 274 v-34 c0-28 18-48 43-48 24 0 42 20 42 48" fill="none" stroke="#2d5a80" stroke-width="14" stroke-linecap="round"/>
  <rect x="164" y="268" width="90" height="70" rx="14" fill="#2d5a80"/>
  <circle cx="209" cy="304" r="9" fill="#ffffff"/>
  <text x="84" y="396" font-family="Arial, sans-serif" font-size="16" fill="#31587d">目录、文件、标签均可加锁</text>
  <text x="84" y="430" font-family="Arial, sans-serif" font-size="16" fill="#31587d">后端接口同步校验权限</text>
  <rect x="396" y="124" width="310" height="388" rx="18" fill="#ffffff" stroke="#cfe1f3"/>
  <text x="426" y="170" font-family="Arial, sans-serif" font-size="24" font-weight="700" fill="#254567">上传与转码</text>
  <rect x="426" y="214" width="246" height="44" rx="10" fill="#f4f9ff" stroke="#dce8f5"/>
  <text x="446" y="242" font-family="Arial, sans-serif" font-size="15" fill="#31587d">选择本地文件/文件夹</text>
  <rect x="426" y="282" width="246" height="44" rx="10" fill="#f4f9ff" stroke="#dce8f5"/>
  <text x="446" y="310" font-family="Arial, sans-serif" font-size="15" fill="#31587d">真实上传进度条</text>
  <rect x="426" y="350" width="246" height="44" rx="10" fill="#fff6e8" stroke="#f0d0a0"/>
  <text x="446" y="378" font-family="Arial, sans-serif" font-size="15" fill="#805620">检测音频编码并转码</text>
  <rect x="738" y="124" width="310" height="388" rx="18" fill="#ffffff" stroke="#cfe1f3"/>
  <text x="768" y="170" font-family="Arial, sans-serif" font-size="24" font-weight="700" fill="#254567">系统管理</text>
  <rect x="768" y="214" width="246" height="48" rx="10" fill="#f4f9ff" stroke="#dce8f5"/>
  <text x="788" y="244" font-family="Arial, sans-serif" font-size="15" fill="#31587d">存储路径迁移</text>
  <rect x="768" y="286" width="246" height="48" rx="10" fill="#f4f9ff" stroke="#dce8f5"/>
  <text x="788" y="316" font-family="Arial, sans-serif" font-size="15" fill="#31587d">中文 / English</text>
  <rect x="768" y="358" width="246" height="48" rx="10" fill="#f4f9ff" stroke="#dce8f5"/>
  <text x="788" y="388" font-family="Arial, sans-serif" font-size="15" fill="#31587d">回收站防误删</text>
  <text x="84" y="552" font-family="Arial, sans-serif" font-size="18" font-weight="700" fill="#1e6fd9">安全默认值 + 可恢复操作 + 数据一致性同步</text>
</svg>
